<?xml version="1.0" encoding="UTF-8"?>
<svg width="350px" height="152px" viewBox="0 0 350 152" version="1.1" xmlns="http://www.w3.org/2000/svg" xmlns:xlink="http://www.w3.org/1999/xlink">
    <!-- Generator: Sketch 52.5 (67469) - http://www.bohemiancoding.com/sketch -->
    <title>Group 12</title>
    <desc>Created with Sketch.</desc>
    <defs>
        <polygon id="path-1" points="0.9297 0 43.5717 0 43.5717 39.0008 0.9297 39.0008"></polygon>
    </defs>
    <g id="Symbols" stroke="none" stroke-width="1" fill="none" fill-rule="evenodd">
        <g id="Group-12">
            <g>
                <path d="M0,57.2835 L0,56.9845 C0,25.7525 24.656,2.4415 57.682,2.4415 C72.961,2.4415 85.745,6.7815 96.219,14.1665 C99.166,16.2445 99.707,20.4015 97.406,23.1785 L85.646,37.3615 C83.619,39.8065 80.09,40.2895 77.434,38.5475 C71.751,34.8225 65.565,32.7765 58.728,32.7765 C45.129,32.7765 35.267,43.2365 35.267,57.4325 L35.267,57.7315 C35.267,72.5255 45.577,82.6875 60.222,82.6875 C63.086,82.6875 65.333,82.4815 67.191,82.1025 C70.088,81.5125 72.177,78.9835 72.177,76.0275 C72.177,72.6075 69.405,69.8365 65.985,69.8365 L60.436,69.8365 C57.017,69.8365 54.244,67.0645 54.244,63.6455 L54.244,53.6115 C54.244,50.1925 57.017,47.4205 60.436,47.4205 L98.712,47.4205 C102.131,47.4205 104.903,50.1925 104.903,53.6115 L104.903,92.7995 C104.903,94.7525 103.992,96.6035 102.421,97.7635 C91.284,105.9805 76.36,111.5285 58.728,111.5285 C26.15,111.5285 0,89.7105 0,57.2835" id="Fill-1" fill="#000000"></path>
                <path d="M128.9209,47.2354 L151.5069,47.2354 C154.9259,47.2354 157.6969,50.0074 157.6969,53.4264 L157.6969,103.0954 C157.6969,106.5144 154.9259,109.2864 151.5069,109.2864 L128.9209,109.2864 C125.5009,109.2864 122.7299,106.5144 122.7299,103.0954 L122.7299,53.4264 C122.7299,50.0074 125.5009,47.2354 128.9209,47.2354" id="Fill-3" fill="#000000"></path>
                <g id="Group-7" transform="translate(118.000000, 0.000000)">
                    <mask id="mask-2" fill="white">
                        <use xlink:href="#path-1"></use>
                    </mask>
                    <g id="Clip-6"></g>
                    <path d="M18.9297,-0.0002 L25.4967,-0.0002 C35.4387,-0.0002 43.4977,8.0588 43.4977,17.9998 L43.5717,21.0008 C43.5717,30.9418 35.5127,39.0008 25.5717,39.0008 L19.0037,39.0008 C9.0627,39.0008 1.0027,30.9418 1.0027,21.0008 L0.9297,17.9998 C0.9297,8.0588 8.9887,-0.0002 18.9297,-0.0002" id="Fill-5" fill="#000000" mask="url(#mask-2)"></path>
                </g>
                <path d="M181.917,47.396 L257.104,47.396 C260.522,47.396 263.295,50.168 263.295,53.587 L263.295,71.092 C263.295,74.511 260.522,77.283 257.104,77.283 L216.885,77.283 C213.466,77.283 210.693,80.055 210.693,83.474 L210.693,84.391 C210.693,87.811 213.466,90.582 216.885,90.582 L253.367,90.582 C256.786,90.582 259.559,93.354 259.559,96.773 L259.559,111.588 C259.559,115.008 256.786,117.78 253.367,117.78 L216.885,117.78 C213.466,117.78 210.693,120.551 210.693,123.971 L210.693,145.809 C210.693,149.228 207.922,152 204.503,152 L181.917,152 C178.497,152 175.726,149.228 175.726,145.809 L175.726,53.587 C175.726,50.168 178.497,47.396 181.917,47.396" id="Fill-8" fill="#000000"></path>
                <path d="M277.1826,32.0293 L258.7816,32.0293 C255.3626,32.0293 252.5896,29.2573 252.5896,25.8383 L252.5896,8.6323 C252.5896,5.2133 255.3626,2.4413 258.7816,2.4413 L342.9346,2.4413 C346.3536,2.4413 349.1246,5.2133 349.1246,8.6323 L349.1246,25.8383 C349.1246,29.2573 346.3536,32.0293 342.9346,32.0293 L324.5326,32.0293 C321.1136,32.0293 318.3416,34.8013 318.3416,38.2203 L318.3416,100.8543 C318.3416,104.2733 315.5696,107.0453 312.1506,107.0453 L289.5656,107.0453 C286.1456,107.0453 283.3736,104.2733 283.3736,100.8543 L283.3736,38.2203 C283.3736,34.8013 280.6026,32.0293 277.1826,32.0293" id="Fill-10" fill="#000000"></path>
            </g>
        </g>
    </g>
</svg>